<?xml version="1.0" encoding="UTF-8"?><svg id="Ebene_2" xmlns="http://www.w3.org/2000/svg" viewBox="0 0 230.4 117"><defs><style>.cls-1{fill:#1db0ff;}.cls-2{fill:#b359ff;}</style></defs><g id="Ebene_1-2"><path class="cls-2" d="m174.3,36c-.98,0-1.95.32-2.81.92l-25.8,18.14-33.89,23.82-52.9,37.2c-.86.6-1.82.92-2.81.92H5.72c-3.16,0-5.72-3.2-5.72-7.16v-30.69c0-3.95,2.56-7.16,5.72-7.16h50.52c.89,0,1.77-.26,2.56-.76L171.59.76c.79-.5,1.67-.76,2.56-.76h50.52c3.16,0,5.72,3.2,5.72,7.16v21.69c0,3.95-2.56,7.16-5.72,7.16h-50.38Z"/><g><path class="cls-1" d="m92.95,34.83l-22.9,14.68c-1.62,1.04-3.54,1.05-5.17.03l-6.06-3.79c-.79-.5-1.67-.75-2.56-.75H5.72c-3.16,0-5.72-3.2-5.72-7.16V7.16C0,3.2,2.56,0,5.72,0h50.52c.89,0,1.77.26,2.56.76l34.09,21.3c4.2,2.62,4.23,10.09.05,12.77Z"/><path class="cls-1" d="m230.4,79.16v30.69c0,3.95-2.56,7.16-5.72,7.16h-50.52c-.89,0-1.77-.26-2.56-.76l-38.01-23.76c-4.08-2.55-4.25-9.75-.3-12.6l21.53-15.54c1.67-1.2,3.7-1.28,5.42-.2l11.36,7.09c.79.5,1.67.75,2.56.75h50.52c3.16,0,5.72,3.2,5.72,7.16Z"/></g></g></svg>