<?xml version="1.0" encoding="UTF-8"?><svg id="Ebene_2" xmlns="http://www.w3.org/2000/svg" viewBox="0 0 1098 117"><defs><style>.cls-1{fill:#1db0ff;}.cls-2{fill:#b359ff;}</style></defs><g id="Ebene_1-2"><path class="cls-2" d="m174.3,36c-.98,0-1.95.32-2.81.92l-25.8,18.14-33.89,23.82-52.9,37.2c-.86.6-1.82.92-2.81.92H5.72c-3.16,0-5.72-3.2-5.72-7.16v-30.69c0-3.95,2.56-7.16,5.72-7.16h50.52c.89,0,1.77-.26,2.56-.76L171.59.76c.79-.5,1.67-.76,2.56-.76h50.52c3.16,0,5.72,3.2,5.72,7.16v21.69c0,3.95-2.56,7.16-5.72,7.16h-50.38Z"/><g><path class="cls-1" d="m92.95,34.83l-22.9,14.68c-1.62,1.04-3.54,1.05-5.17.03l-6.06-3.79c-.79-.5-1.67-.75-2.56-.75H5.72c-3.16,0-5.72-3.2-5.72-7.16V7.16C0,3.2,2.56,0,5.72,0h50.52c.89,0,1.77.26,2.56.76l34.09,21.3c4.2,2.62,4.23,10.09.05,12.77Z"/><path class="cls-1" d="m230.4,79.16v30.69c0,3.95-2.56,7.16-5.72,7.16h-50.52c-.89,0-1.77-.26-2.56-.76l-38.01-23.76c-4.08-2.55-4.25-9.75-.3-12.6l21.53-15.54c1.67-1.2,3.7-1.28,5.42-.2l11.36,7.09c.79.5,1.67.75,2.56.75h50.52c3.16,0,5.72,3.2,5.72,7.16Z"/></g><g><path class="cls-2" d="m330.39,0c24.76,0,40.02,12.21,48.33,26.28l-24.42,12.89c-4.58-7.46-13.23-13.4-23.91-13.4-18.48,0-31.54,14.24-31.54,32.73s13.06,32.73,31.54,32.73c8.82,0,16.79-3.05,21.37-6.78v-9.5h-25.94v-24.25h54.6v44.26c-12.21,13.4-28.66,22.04-50.02,22.04-33.74,0-61.21-22.55-61.21-58.5S296.65,0,330.39,0Z"/><path class="cls-2" d="m445.18,106.83c-5.09,6.1-14.92,10.17-25.43,10.17-12.55,0-28.15-8.48-28.15-26.96,0-19.84,15.6-25.77,28.15-25.77,10.85,0,20.52,3.39,25.43,9.5v-10.34c0-7.12-6.1-11.87-16.62-11.87-8.14,0-16.62,3.05-23.23,8.65l-9.33-16.45c10.51-8.99,24.59-12.72,37.13-12.72,19.67,0,38.15,7.29,38.15,32.73v51.21h-26.11v-8.14Zm0-20.18c-2.71-3.73-8.82-5.77-14.58-5.77-6.95,0-13.06,3.05-13.06,9.5s6.1,9.5,13.06,9.5c5.76,0,11.87-2.03,14.58-5.93v-7.29Z"/><path class="cls-2" d="m593.55,65.11c0-6.27-3.05-11.02-10.85-11.02-7.12,0-12.21,4.58-14.75,7.97v52.9h-26.11v-49.85c0-6.27-2.88-11.02-10.85-11.02-6.95,0-11.87,4.58-14.58,7.97v52.9h-26.11V33.07h26.11v10c3.56-4.75,14.07-12.04,26.96-12.04,11.7,0,19.84,4.92,23.23,14.58,4.75-7.12,15.43-14.58,28.32-14.58,15.09,0,24.59,7.8,24.59,24.59v59.35h-25.94v-49.85Z"/><path class="cls-2" d="m676.81,31.03c24.25,0,41.88,17.8,41.88,45.61v5.6h-58.33c1.53,7.63,8.65,14.58,20.86,14.58,7.29,0,15.43-2.88,20.01-6.95l11.02,16.28c-8.14,7.29-21.7,10.85-34.25,10.85-25.27,0-44.77-16.45-44.77-43.07,0-23.74,17.97-42.9,43.58-42.9Zm-16.79,34.25h33.74c-.68-5.77-4.92-14.07-16.96-14.07-11.36,0-15.77,8.14-16.79,14.07Z"/><path class="cls-1" d="m732.25,1.87h82.92v24.59h-53.75v18.82h52.56v24.76h-52.56v44.93h-29.17V1.87Z"/><path class="cls-1" d="m830.26,1.87h26.11v113.1h-26.11V1.87Z"/><path class="cls-1" d="m869.94,73.93c0-23.06,16.79-42.9,44.6-42.9s44.76,19.84,44.76,42.9-16.62,43.07-44.76,43.07-44.6-20.01-44.6-43.07Zm62.57,0c0-10.85-6.44-19.84-17.97-19.84s-17.64,8.99-17.64,19.84,6.27,20.01,17.64,20.01,17.97-8.99,17.97-20.01Z"/><path class="cls-1" d="m1030.17,64.27l-15.26,50.7h-28.15l-24.25-81.9h26.79l13.23,50.19,16.11-50.19h23.23l16.11,50.19,13.06-50.19h26.96l-24.25,81.9h-28.15l-15.43-50.7Z"/></g></g></svg>